<?xml version="1.0" encoding="utf-8"?>
<!-- Generator: Adobe Illustrator 22.1.0, SVG Export Plug-In . SVG Version: 6.00 Build 0)  -->
<svg version="1.1" id="Layer_1" xmlns="http://www.w3.org/2000/svg" xmlns:xlink="http://www.w3.org/1999/xlink" x="0px" y="0px"
	 viewBox="0 0 256 289" style="enable-background:new 0 0 256 289;" xml:space="preserve">
<style type="text/css">
	.st0{fill:url(#SVGID_1_);}
	.st1{fill:url(#SVGID_2_);}
	.st2{fill:url(#SVGID_3_);}
	.st3{fill:url(#SVGID_4_);}
	.st4{fill:url(#SVGID_5_);}
	.st5{fill:url(#SVGID_6_);}
</style>
<g>
	<linearGradient id="SVGID_1_" gradientUnits="userSpaceOnUse" x1="40.6471" y1="14.7604" x2="200.2876" y2="291.2659">
		<stop  offset="0" style="stop-color:#01E7CF"/>
		<stop  offset="1" style="stop-color:#458DFF"/>
	</linearGradient>
	<path class="st0" d="M134.6,289l-7.7-2.6c0,0,0.9-39.2-13.1-42c-9.4-10.9,1.5-461.6,35.3-1.5c0,0-11.6,5.8-13.7,15.8
		C133.1,268.4,134.6,289,134.6,289L134.6,289L134.6,289z"/>
	<linearGradient id="SVGID_2_" gradientUnits="userSpaceOnUse" x1="40.6471" y1="14.7604" x2="200.2876" y2="291.2659">
		<stop  offset="0" style="stop-color:#01E7CF"/>
		<stop  offset="1" style="stop-color:#458DFF"/>
	</linearGradient>
	<path class="st1" d="M134.6,289l-7.7-2.6c0,0,0.9-39.2-13.1-42c-9.4-10.9,1.5-461.6,35.3-1.5c0,0-11.6,5.8-13.7,15.8
		C133.1,268.4,134.6,289,134.6,289L134.6,289L134.6,289z"/>
	<linearGradient id="SVGID_3_" gradientUnits="userSpaceOnUse" x1="64.0154" y1="1.3414" x2="223.6514" y2="277.839">
		<stop  offset="0" style="stop-color:#01E7CF"/>
		<stop  offset="1" style="stop-color:#458DFF"/>
	</linearGradient>
	<path class="st2" d="M138.7,251.1c0,0,67.4-44.3,51.6-136.4c-15.2-67-51-89-55-97.4c-4.3-6-8.4-16.5-8.4-16.5l2.8,186.3
		C129.7,187.3,123.9,244.1,138.7,251.1"/>
	<linearGradient id="SVGID_4_" gradientUnits="userSpaceOnUse" x1="64.0154" y1="1.3414" x2="223.6514" y2="277.839">
		<stop  offset="0" style="stop-color:#01E7CF"/>
		<stop  offset="1" style="stop-color:#458DFF"/>
	</linearGradient>
	<path class="st3" d="M138.7,251.1c0,0,67.4-44.3,51.6-136.4c-15.2-67-51-89-55-97.4c-4.3-6-8.4-16.5-8.4-16.5l2.8,186.3
		C129.7,187.3,123.9,244.1,138.7,251.1"/>
	<linearGradient id="SVGID_5_" gradientUnits="userSpaceOnUse" x1="49.779" y1="9.5799" x2="209.3089" y2="285.8938">
		<stop  offset="0" style="stop-color:#01E7CF"/>
		<stop  offset="1" style="stop-color:#458DFF"/>
	</linearGradient>
	<path class="st4" d="M122.9,253.5c0,0-63.2-43.2-59.5-119.2C67,58.4,111.7,21,120.3,14.3c5.6-6,5.8-8.3,6.2-14.3
		c3.9,8.4,3.2,126.3,3.8,140.2C132,193.7,127.3,243.4,122.9,253.5L122.9,253.5L122.9,253.5z"/>
	<linearGradient id="SVGID_6_" gradientUnits="userSpaceOnUse" x1="49.779" y1="9.5799" x2="209.3089" y2="285.8938">
		<stop  offset="0" style="stop-color:#01E7CF"/>
		<stop  offset="1" style="stop-color:#458DFF"/>
	</linearGradient>
	<path class="st5" d="M122.9,253.5c0,0-63.2-43.2-59.5-119.2C67,58.4,111.7,21,120.3,14.3c5.6-6,5.8-8.3,6.2-14.3
		c3.9,8.4,3.2,126.3,3.8,140.2C132,193.7,127.3,243.4,122.9,253.5L122.9,253.5L122.9,253.5z"/>
</g>
</svg>
