<?xml version="1.0" encoding="utf-8"?>
<!-- Generator: Adobe Illustrator 23.0.6, SVG Export Plug-In . SVG Version: 6.00 Build 0)  -->
<svg version="1.1" id="Layer_1" xmlns="http://www.w3.org/2000/svg" xmlns:xlink="http://www.w3.org/1999/xlink" x="0px" y="0px"
	 viewBox="0 0 1080 1080" style="enable-background:new 0 0 1080 1080;" xml:space="preserve">
<style type="text/css">
	.st0{fill:#FFFFFF;}
</style>
<g>
	<path class="st0" d="M144.6,516.7c15.6-8.4,18.9-35,39.9-35c24.9,0,24.9,37.4,50,37.4c24.9,0,24.9-214.1,50-214.1
		c24.9,0,24.9,214.1,50,214.1c24.9,0,24.9-131.4,50-131.4c24.9,0,24.9,83.7,50,83.7c24.9,0,24.9-350.3,50-350.3
		c24.9,0,24.9,339.1,50,339.1c24.9,0,24.9-159.7,50-159.7c22.8,0,24.9,189.9,44,222.8h11c20.1-39.3,21.8-307.6,44.7-307.6
		c24.9,0,24.9,258,50,258c24.9,0,24.9-36.2,50-36.2c24.9,0,24.9,81.8,50,81.8c38.4,0,18-69.1,118,4.1H1080
		C1070.9,233.1,833.3,0.7,541.4,0.7S12,233.1,2.8,523.2h123.3C128.8,520.1,136,517.9,144.6,516.7z"/>
	<path class="st0" d="M833.8,536.9c-24.9,0-24.9,81.8-50,81.8c-24.9,0-24.9-36.2-50-36.2c-24.9,0-24.9,258-50,258
		c-23.3,0-24.9-268.3-44.7-307.6h-11c-19.2,32.9-21.3,222.8-44,222.8c-24.9,0-24.9-159.7-50-159.7c-24.9,0-24.9,339.1-50,339.1
		c-24.9,0-24.9-350.3-50-350.3c-24.9,0-24.9,83.7-50,83.7c-24.9,0-24.9-131.4-50-131.4c-24.9,0-24.9,214.1-50,214.1
		c-24.9,0-24.9-214.1-50-214.1c-24.9,0-24.9,37.4-50,37.4c-21.1,0-24.5-26.9-39.9-35c-8.6-1.2-15.6-3.6-19.4-6.5H1.6
		c0,2.4-0.2,5-0.2,7.4c0,297.9,241.4,539.6,539.1,539.6s539.1-241.7,539.1-539.8c0-2.6-0.2-5-0.2-7.4H952.2
		C852,605.9,872.2,536.9,833.8,536.9z"/>
</g>
</svg>
