<?xml version="1.0" encoding="utf-8"?>
<!-- Generator: Adobe Illustrator 22.1.0, SVG Export Plug-In . SVG Version: 6.00 Build 0)  -->
<svg version="1.1" id="Layer_1" xmlns="http://www.w3.org/2000/svg" xmlns:xlink="http://www.w3.org/1999/xlink" x="0px" y="0px"
	 viewBox="0 0 1080 1080" style="enable-background:new 0 0 1080 1080;" xml:space="preserve">
<style type="text/css">
	.st0{fill:#FFFFFF;}
</style>
<g>
	<path class="st0" d="M143.4,516.7c15.6-8.4,18.9-35,40-35c24.9,0,24.9,37.4,50.1,37.4c24.9,0,24.9-214.1,50.1-214.1
		c24.9,0,24.9,214.1,50.1,214.1c24.9,0,24.9-131.4,50.1-131.4c24.9,0,24.9,83.7,50.1,83.7c24.9,0,24.9-350.3,50.1-350.3
		c24.9,0,24.9,339.1,50.1,339.1c24.9,0,24.9-159.7,50.1-159.7c22.8,0,24.9,189.9,44.1,222.8h11c20.1-39.3,21.8-307.6,44.8-307.6
		c24.9,0,24.9,258,50.1,258c24.9,0,24.9-36.2,50.1-36.2c24.9,0,24.9,81.8,50.1,81.8c38.4,0,18-69.1,118.2,4.1H1080
		C1070.9,233.1,833,0.7,540.7,0.7S10.6,233.1,1.4,523.2h123.5C127.6,520.1,134.8,517.9,143.4,516.7z"/>
	<path class="st0" d="M833.5,536.9c-24.9,0-24.9,81.8-50.1,81.8c-24.9,0-24.9-36.2-50.1-36.2c-24.9,0-24.9,258-50.1,258
		c-23.3,0-24.9-268.3-44.8-307.6h-11c-19.2,32.9-21.3,222.8-44.1,222.8c-24.9,0-24.9-159.7-50.1-159.7
		c-24.9,0-24.9,339.1-50.1,339.1c-24.9,0-24.9-350.3-50.1-350.3c-24.9,0-24.9,83.7-50.1,83.7c-24.9,0-24.9-131.4-50.1-131.4
		c-24.9,0-24.9,214.1-50.1,214.1c-24.9,0-24.9-214.1-50.1-214.1c-24.9,0-24.9,37.4-50.1,37.4c-21.1,0-24.5-26.9-40-35
		c-8.6-1.2-15.6-3.6-19.4-6.5H0.2c0,2.4-0.2,5-0.2,7.4C0,838.3,241.7,1080,539.8,1080s539.8-241.7,539.8-539.8c0-2.6-0.2-5-0.2-7.4
		H952C851.7,605.9,871.9,536.9,833.5,536.9z"/>
</g>
</svg>
