<?xml version="1.0" encoding="utf-8"?>
<!-- Generator: Adobe Illustrator 23.0.6, SVG Export Plug-In . SVG Version: 6.00 Build 0)  -->
<svg version="1.1" id="Layer_1" xmlns="http://www.w3.org/2000/svg" xmlns:xlink="http://www.w3.org/1999/xlink" x="0px" y="0px"
	 viewBox="0 0 1080 1080" style="enable-background:new 0 0 1080 1080;" xml:space="preserve">
<style type="text/css">
	.st0{fill:#FFFFFF;}
</style>
<path class="st0" d="M840.6,239.4c-166-166-435.2-166-601.2,0s-166,435.2,0,601.2s435.2,166,601.2,0S1006.6,405.4,840.6,239.4z
	 M544.8,769.7L544.8,769.7c-17,9.9-38.7,4.1-48.6-12.8L325.8,464.2c-9.9-17-4.1-38.7,12.8-48.6l0,0c17-9.9,38.7-4.1,48.6,12.8
	l170.4,292.6C567.5,738,561.8,759.8,544.8,769.7z M681.2,752.7L681.2,752.7c-17,9.9-38.7,4.1-48.6-12.8L407.9,354
	c-9.9-17-4.1-38.7,12.8-48.6l0,0c17-9.9,38.7-4.1,48.6,12.8L694,704.1C703.9,721.1,698.2,742.8,681.2,752.7z M736.4,596.4
	L736.4,596.4c-17,9.9-38.7,4.1-48.6-12.8L571,383.1c-9.9-17-4.1-38.7,12.8-48.6h0c17-9.9,38.7-4.1,48.6,12.8l116.8,200.5
	C759.1,564.8,753.4,586.5,736.4,596.4z"/>
<path class="st0" d="M921.8,158.2C711-52.7,369-52.7,158.2,158.2s-210.9,552.8,0,763.7s552.8,210.9,763.7,0S1132.7,369,921.8,158.2z
	 M540,1021.3c-265.8,0-481.3-215.5-481.3-481.3S274.2,58.6,540,58.6s481.3,215.5,481.3,481.3S805.8,1021.3,540,1021.3z"/>
</svg>
