<?xml version="1.0" encoding="utf-8"?>
<!-- Generator: Adobe Illustrator 23.0.6, SVG Export Plug-In . SVG Version: 6.00 Build 0)  -->
<svg version="1.1" id="Layer_1" xmlns="http://www.w3.org/2000/svg" xmlns:xlink="http://www.w3.org/1999/xlink" x="0px" y="0px"
	 viewBox="0 0 1080 1080" style="enable-background:new 0 0 1080 1080;" xml:space="preserve">
<style type="text/css">
	.st0{fill:#FFFFFF;}
</style>
<path class="st0" d="M225.9,489.2l700.5-311.1C829.8,75.1,692.4,10.7,540,10.7c-292.3,0-529.3,237-529.3,529.3
	c0,121.3,40.8,233,109.4,322.3l408.5-264.6L225.9,489.2z"/>
<path class="st0" d="M939.8,193.1L559.3,496.5l298.3,79.1L129.4,874c97.1,119.2,245,195.3,410.6,195.3
	c292.3,0,529.3-237,529.3-529.3C1069.3,407.3,1020.5,286,939.8,193.1z"/>
<path class="st0" d="M54.8,904.6l74.6-30.6c-3.2-3.9-6.3-7.8-9.3-11.7L54.8,904.6z"/>
<path class="st0" d="M999,145.9l-72.6,32.3c4.6,4.9,9.1,9.9,13.5,14.9L999,145.9z"/>
</svg>
