<?xml version="1.0" encoding="utf-8"?>
<!-- Generator: Adobe Illustrator 23.0.6, SVG Export Plug-In . SVG Version: 6.00 Build 0)  -->
<svg version="1.1" id="Layer_1" xmlns="http://www.w3.org/2000/svg" xmlns:xlink="http://www.w3.org/1999/xlink" x="0px" y="0px"
	 viewBox="0 0 1080 1080" style="enable-background:new 0 0 1080 1080;" xml:space="preserve">
<style type="text/css">
	.st0{fill:#FFFFFF;}
</style>
<g>
	<path class="st0" d="M366.9,94.3c6,4,13,4,24-9c5.1-6,13.1-14.3,20.3-21.5c-17.2,4.2-34.1,9.2-50.5,15
		C361.9,85.3,363.9,92.3,366.9,94.3z"/>
	<path class="st0" d="M566.4,548.4c-12-9-92.2-84.1-108.2-120.8s-8-36.7-1.3-30.7s42.7,38,79.3,45.3s8-22.7-10.7-30
		s-122.7-102-138.7-118s-29-34-29-76s-21.1-83-33-109c-2.4-5.2-4.3-9.8-5.8-13.9C131,179.9,0,368.8,0,588.3
		c0,108.9,32.2,210.2,87.7,295c16.1-41.5,62.6-128.2,172.8-138.4c145.5-13.5,274.5-9,282-49.5C549.9,654.9,578.4,557.4,566.4,548.4z
		"/>
	<path class="st0" d="M786.6,367c34.3-39,52.3-36,57-151.3s16,52,13.3,69.3c-2.3,14.7,35.5-43.4,54.6-88.5
		C814.7,104.6,683.9,48.3,540,48.3c-24.9,0-49.4,1.7-73.4,5c-12.6,14.5-48.6,57-52.7,71c-5,17-15,88,17,135s29,38,29,38s-8-55-3-62
		s14,58,29,81s34,59,60,63c7.7,1.2-11.7-81-12.3-91.7c-0.7-10.7,18.8,56.3,35.8,82.3c16.9,26,34.2,75.3,60.6,79
		c26.3,3.7,46.3,3,63.3-2s42.3-88,49.3-127s16.7-63.3,19-54.3s-13.7,118.3-14,124C747.2,395.3,752.2,406,786.6,367z"/>
	<path class="st0" d="M961.1,250.2c-23.1,27-50.9,57.4-66.2,66.7c-29.3,18-144,122.7-128,126s80-27.3,94.7-42.7
		c14.7-15.3-2.7,37.7-50.7,76.5s-63.3,86.8-30.7,127.5s60.7,135.3,62,210.7s18.7,120.7,6.7,164.7c-4.3,15.7-14,41.5-27.9,69.9
		c155.3-94.8,259-265.9,259-461.2C1080,460.3,1035.5,342.8,961.1,250.2z"/>
</g>
</svg>
