<?xml version="1.0" encoding="utf-8"?>
<!-- Generator: Adobe Illustrator 22.1.0, SVG Export Plug-In . SVG Version: 6.00 Build 0)  -->
<svg version="1.1" id="Layer_1" xmlns="http://www.w3.org/2000/svg" xmlns:xlink="http://www.w3.org/1999/xlink" x="0px" y="0px"
	 viewBox="0 0 480 480" style="enable-background:new 0 0 480 480;" xml:space="preserve">
<style type="text/css">
	.st0{fill:url(#SVGID_1_);}
	.st1{fill:url(#SVGID_2_);}
	.st2{fill:url(#SVGID_3_);}
</style>
<radialGradient id="SVGID_1_" cx="275.6667" cy="305.6667" r="179.7838" gradientTransform="matrix(1 0 0 -1 0 480)" gradientUnits="userSpaceOnUse">
	<stop  offset="0" style="stop-color:#5DC4BC"/>
	<stop  offset="1" style="stop-color:#5DC4BC;stop-opacity:0"/>
</radialGradient>
<circle class="st0" cx="240" cy="240" r="134.8"/>
<radialGradient id="SVGID_2_" cx="235.0131" cy="243.8393" r="279.7727" gradientTransform="matrix(0.9595 0.2817 6.109706e-02 -0.2081 -0.343 224.5898)" gradientUnits="userSpaceOnUse">
	<stop  offset="0" style="stop-color:#5B84C3"/>
	<stop  offset="1" style="stop-color:#8F75FF;stop-opacity:0"/>
</radialGradient>
<path class="st1" d="M256.6,183.6c-126.5-37.1-236.4-42-245.6-10.8s86,86.5,212.5,123.7s236.4,42,245.6,10.8
	C478.2,276.1,383,220.7,256.6,183.6z M229.9,274.4c-87-25.5-152.9-61.6-147.3-80.6s80.6-13.7,167.5,11.8s152.9,61.6,147.3,80.6
	C391.8,305.2,316.8,300,229.9,274.4z"/>
<radialGradient id="SVGID_3_" cx="418.0952" cy="412.426" r="63.9081" gradientTransform="matrix(1 0 0 -1 0 480)" gradientUnits="userSpaceOnUse">
	<stop  offset="0" style="stop-color:#458DFF"/>
	<stop  offset="1" style="stop-color:#458DFF;stop-opacity:0"/>
</radialGradient>
<circle class="st2" cx="405.4" cy="90.9" r="47.9"/>
</svg>
