<?xml version="1.0" encoding="utf-8"?>
<!-- Generator: Adobe Illustrator 22.1.0, SVG Export Plug-In . SVG Version: 6.00 Build 0)  -->
<svg version="1.1" id="Layer_1" xmlns="http://www.w3.org/2000/svg" xmlns:xlink="http://www.w3.org/1999/xlink" x="0px" y="0px"
	 viewBox="0 0 1080 1080" style="enable-background:new 0 0 1080 1080;" xml:space="preserve">
<style type="text/css">
	.st0{opacity:0.15;fill:#FFFFFF;}
</style>
<circle class="st0" cx="634.9" cy="374.8" r="0.7"/>
<circle class="st0" cx="701" cy="399.3" r="1.8"/>
<circle class="st0" cx="636.1" cy="431.7" r="1.4"/>
<circle class="st0" cx="661.3" cy="331.3" r="1.8"/>
<circle class="st0" cx="576.8" cy="503.7" r="1.9"/>
<circle class="st0" cx="726.1" cy="453.9" r="2.3"/>
<circle class="st0" cx="665.8" cy="497.8" r="0.7"/>
<circle class="st0" cx="704.1" cy="502.9" r="2.5"/>
<circle class="st0" cx="749.4" cy="508.5" r="1.7"/>
<circle class="st0" cx="832.1" cy="505.2" r="1"/>
<circle class="st0" cx="825.5" cy="530.2" r="1.3"/>
<circle class="st0" cx="865.9" cy="421.1" r="2.3"/>
<circle class="st0" cx="747.5" cy="405.4" r="1.1"/>
<circle class="st0" cx="796.1" cy="381.3" r="2.2"/>
<circle class="st0" cx="804.8" cy="430.2" r="1.8"/>
<circle class="st0" cx="744.6" cy="350.3" r="1.8"/>
<circle class="st0" cx="549.3" cy="356.9" r="1.1"/>
<circle class="st0" cx="560.9" cy="370.7" r="2.3"/>
<circle class="st0" cx="600.2" cy="523.3" r="1.4"/>
<circle class="st0" cx="673.5" cy="457.1" r="1.6"/>
<circle class="st0" cx="573.7" cy="487.4" r="2.2"/>
<circle class="st0" cx="508.9" cy="526.2" r="2.5"/>
<circle class="st0" cx="507.6" cy="546.9" r="2.6"/>
<circle class="st0" cx="514" cy="613.8" r="1.3"/>
<circle class="st0" cx="459.5" cy="476.8" r="2.2"/>
<circle class="st0" cx="510.9" cy="398.6" r="1.5"/>
<circle class="st0" cx="523.9" cy="369.9" r="2.1"/>
<circle class="st0" cx="484.4" cy="479.1" r="0.7"/>
<circle class="st0" cx="450.6" cy="377.5" r="1.9"/>
<circle class="st0" cx="348.8" cy="419.9" r="1.8"/>
<circle class="st0" cx="475.2" cy="466.9" r="1.5"/>
<circle class="st0" cx="354.5" cy="442.5" r="1.7"/>
<circle class="st0" cx="417.3" cy="538.6" r="0.9"/>
<circle class="st0" cx="396" cy="539.4" r="1.3"/>
<circle class="st0" cx="375.9" cy="461.9" r="1.9"/>
<circle class="st0" cx="455.8" cy="601.1" r="2.1"/>
<circle class="st0" cx="592.8" cy="527.7" r="1.1"/>
<circle class="st0" cx="550.9" cy="572.6" r="1.4"/>
<circle class="st0" cx="646" cy="493" r="1.2"/>
<circle class="st0" cx="539" cy="593" r="1.3"/>
<circle class="st0" cx="571.2" cy="155.6" r="1"/>
<circle class="st0" cx="689.6" cy="82.8" r="2"/>
<circle class="st0" cx="652.9" cy="227.9" r="1.8"/>
<circle class="st0" cx="663.8" cy="132.9" r="1.8"/>
<circle class="st0" cx="590.7" cy="264" r="0.9"/>
<circle class="st0" cx="638.3" cy="248.9" r="2.3"/>
<circle class="st0" cx="689.1" cy="322.4" r="2.5"/>
<circle class="st0" cx="640.9" cy="270.2" r="1.5"/>
<circle class="st0" cx="812" cy="278.6" r="1"/>
<circle class="st0" cx="780.5" cy="310.6" r="1.3"/>
<circle class="st0" cx="750.4" cy="381" r="0.8"/>
<circle class="st0" cx="789.1" cy="265.7" r="0.9"/>
<circle class="st0" cx="736.7" cy="215.9" r="0.8"/>
<circle class="st0" cx="680.8" cy="158.1" r="0.9"/>
<circle class="st0" cx="777.7" cy="178.5" r="1.1"/>
<circle class="st0" cx="761" cy="239.9" r="1.2"/>
<circle class="st0" cx="553.2" cy="234.4" r="1.4"/>
<circle class="st0" cx="601.8" cy="135" r="2"/>
<circle class="st0" cx="502.2" cy="190.6" r="2.4"/>
<circle class="st0" cx="537.8" cy="178.4" r="1.8"/>
<circle class="st0" cx="496.1" cy="331.3" r="2.5"/>
<circle class="st0" cx="447.3" cy="382.3" r="2.4"/>
<circle class="st0" cx="528.4" cy="310.4" r="2.4"/>
<circle class="st0" cx="491.4" cy="370.1" r="2.4"/>
<circle class="st0" cx="569" cy="200.3" r="1.3"/>
<circle class="st0" cx="505.5" cy="214.9" r="2.4"/>
<circle class="st0" cx="506.5" cy="197.9" r="2.5"/>
<circle class="st0" cx="503.7" cy="227.1" r="2.3"/>
<circle class="st0" cx="358.9" cy="228.9" r="2.4"/>
<circle class="st0" cx="304.1" cy="247.1" r="2"/>
<circle class="st0" cx="410.2" cy="246.5" r="2.4"/>
<circle class="st0" cx="387.6" cy="289.1" r="0.7"/>
<circle class="st0" cx="499.3" cy="404.1" r="1.9"/>
<circle class="st0" cx="425.8" cy="280.1" r="1.9"/>
<circle class="st0" cx="411.3" cy="197.2" r="1.2"/>
<circle class="st0" cx="387" cy="342.9" r="1.6"/>
<circle class="st0" cx="584.6" cy="277.8" r="0.9"/>
<circle class="st0" cx="568.8" cy="312" r="1.7"/>
<circle class="st0" cx="600.4" cy="229.6" r="1.5"/>
<circle class="st0" cx="523.2" cy="310.3" r="0.7"/>
<circle class="st0" cx="689.2" cy="893.5" r="1"/>
<circle class="st0" cx="738.5" cy="783.3" r="1.3"/>
<circle class="st0" cx="688.1" cy="809.9" r="0.8"/>
<circle class="st0" cx="736.3" cy="821.3" r="1.9"/>
<circle class="st0" cx="709.5" cy="946.3" r="2.5"/>
<circle class="st0" cx="759.7" cy="906.8" r="1.1"/>
<circle class="st0" cx="696.6" cy="962" r="2"/>
<circle class="st0" cx="739.8" cy="863.2" r="2.4"/>
<circle class="st0" cx="854.3" cy="921.7" r="2.2"/>
<circle class="st0" cx="896.7" cy="923.2" r="0.8"/>
<circle class="st0" cx="753" cy="922.5" r="2.1"/>
<circle class="st0" cx="934.7" cy="830" r="1.2"/>
<circle class="st0" cx="834.3" cy="821.8" r="2.6"/>
<circle class="st0" cx="896" cy="791.1" r="0.8"/>
<circle class="st0" cx="767.3" cy="774.3" r="1.1"/>
<circle class="st0" cx="884.3" cy="781.7" r="1.5"/>
<circle class="st0" cx="591.3" cy="799" r="1.9"/>
<circle class="st0" cx="619" cy="858.1" r="1.8"/>
<circle class="st0" cx="547.4" cy="831.4" r="2.2"/>
<circle class="st0" cx="664.3" cy="797.4" r="2.2"/>
<circle class="st0" cx="552" cy="893.3" r="2.3"/>
<circle class="st0" cx="505.3" cy="977.4" r="0.9"/>
<circle class="st0" cx="626.9" cy="903.8" r="1.7"/>
<circle class="st0" cx="580.3" cy="950.9" r="2.2"/>
<circle class="st0" cx="636.3" cy="864.4" r="0.7"/>
<circle class="st0" cx="506.3" cy="922.2" r="1.2"/>
<circle class="st0" cx="641.2" cy="860.4" r="2.4"/>
<circle class="st0" cx="469.1" cy="777.1" r="1.4"/>
<circle class="st0" cx="480.9" cy="793.4" r="1.4"/>
<circle class="st0" cx="406.2" cy="858" r="1"/>
<circle class="st0" cx="489.9" cy="774" r="1.5"/>
<circle class="st0" cx="432.1" cy="811.1" r="1"/>
<circle class="st0" cx="561.7" cy="984.6" r="1.2"/>
<circle class="st0" cx="533" cy="1027.7" r="0.9"/>
<circle class="st0" cx="468.8" cy="953" r="2.5"/>
<circle class="st0" cx="437.8" cy="954.8" r="2.4"/>
<circle class="st0" cx="661.4" cy="865.6" r="1.9"/>
<circle class="st0" cx="689.6" cy="975.7" r="1.8"/>
<circle class="st0" cx="714.7" cy="887.6" r="2.3"/>
<circle class="st0" cx="680.1" cy="908.7" r="0.8"/>
<circle class="st0" cx="731.6" cy="693.3" r="0.9"/>
<circle class="st0" cx="777.7" cy="560.5" r="2.3"/>
<circle class="st0" cx="698" cy="575.4" r="2.3"/>
<circle class="st0" cx="722.3" cy="621" r="2.3"/>
<circle class="st0" cx="768.4" cy="671.6" r="2"/>
<circle class="st0" cx="660.7" cy="666.8" r="1.2"/>
<circle class="st0" cx="726.3" cy="753.4" r="2.3"/>
<circle class="st0" cx="669.7" cy="652.9" r="2.3"/>
<circle class="st0" cx="853.5" cy="702.1" r="0.9"/>
<circle class="st0" cx="856.8" cy="673.4" r="2.1"/>
<circle class="st0" cx="783.4" cy="674" r="2.2"/>
<circle class="st0" cx="859.1" cy="726.4" r="1.3"/>
<circle class="st0" cx="763.1" cy="589.7" r="2.5"/>
<circle class="st0" cx="795" cy="503.8" r="0.7"/>
<circle class="st0" cx="804.9" cy="615.9" r="1.9"/>
<circle class="st0" cx="755.6" cy="614.5" r="1.6"/>
<circle class="st0" cx="582" cy="708.1" r="1.2"/>
<circle class="st0" cx="615.1" cy="639.6" r="2.4"/>
<circle class="st0" cx="531.4" cy="663.7" r="0.8"/>
<circle class="st0" cx="636" cy="597.9" r="0.8"/>
<circle class="st0" cx="562" cy="734.2" r="2.3"/>
<circle class="st0" cx="511.2" cy="810.6" r="0.8"/>
<circle class="st0" cx="502.4" cy="689.1" r="1.9"/>
<circle class="st0" cx="511.1" cy="772.8" r="1.8"/>
<circle class="st0" cx="531.3" cy="614" r="1.9"/>
<circle class="st0" cx="483.1" cy="686.4" r="2.5"/>
<circle class="st0" cx="603.6" cy="571.1" r="1"/>
<circle class="st0" cx="437.1" cy="644.6" r="1.9"/>
<circle class="st0" cx="445.7" cy="636.1" r="0.7"/>
<circle class="st0" cx="368.5" cy="600.9" r="1.6"/>
<circle class="st0" cx="518.5" cy="690.8" r="1.3"/>
<circle class="st0" cx="353" cy="647.7" r="1.6"/>
<circle class="st0" cx="440.6" cy="714.9" r="1.4"/>
<circle class="st0" cx="455.5" cy="734.5" r="1.1"/>
<circle class="st0" cx="422.2" cy="643.9" r="2"/>
<circle class="st0" cx="429.4" cy="707.1" r="0.9"/>
<circle class="st0" cx="707.4" cy="755.4" r="1.1"/>
<circle class="st0" cx="623.8" cy="686.4" r="2.4"/>
<circle class="st0" cx="692.3" cy="735.4" r="1.5"/>
<circle class="st0" cx="525.2" cy="764.6" r="0.7"/>
<circle class="st0" cx="239.8" cy="435.5" r="2.3"/>
<circle class="st0" cx="228.7" cy="424.2" r="1.9"/>
<circle class="st0" cx="201.6" cy="504.6" r="1.5"/>
<circle class="st0" cx="235.2" cy="461.4" r="1.1"/>
<circle class="st0" cx="213.3" cy="510.8" r="1.4"/>
<circle class="st0" cx="213.1" cy="509.3" r="1.8"/>
<circle class="st0" cx="209.2" cy="569.7" r="2.3"/>
<circle class="st0" cx="196.4" cy="494.3" r="2.3"/>
<circle class="st0" cx="372.5" cy="625.1" r="1.7"/>
<circle class="st0" cx="351.7" cy="612.9" r="2.4"/>
<circle class="st0" cx="325.2" cy="650.8" r="1.3"/>
<circle class="st0" cx="381.2" cy="536.9" r="1.4"/>
<circle class="st0" cx="246.1" cy="455.8" r="1.9"/>
<circle class="st0" cx="308" cy="476.9" r="1.6"/>
<circle class="st0" cx="307.5" cy="434.5" r="1.6"/>
<circle class="st0" cx="275.6" cy="439.6" r="1"/>
<circle class="st0" cx="80.6" cy="447.7" r="1.1"/>
<circle class="st0" cx="172.7" cy="497" r="1.1"/>
<circle class="st0" cx="97.5" cy="514.4" r="1.4"/>
<circle class="st0" cx="89.9" cy="483.3" r="2"/>
<circle class="st0" cx="55.5" cy="533.9" r="1.1"/>
<circle class="st0" cx="35.1" cy="565.4" r="1.2"/>
<circle class="st0" cx="57.9" cy="546.4" r="1.8"/>
<circle class="st0" cx="-33.3" cy="551.4" r="2.5"/>
<circle class="st0" cx="16.2" cy="473.3" r="1.9"/>
<circle class="st0" cx="187.2" cy="661.6" r="1.8"/>
<circle class="st0" cx="105.9" cy="651.3" r="2.4"/>
<circle class="st0" cx="142.6" cy="567.8" r="2.4"/>
<circle class="st0" cx="40.4" cy="577" r="1.7"/>
<circle class="st0" cx="122.3" cy="239.5" r="1"/>
<circle class="st0" cx="154.4" cy="245.6" r="1.6"/>
<circle class="st0" cx="143.2" cy="232.8" r="2"/>
<circle class="st0" cx="193.1" cy="196.8" r="2.2"/>
<circle class="st0" cx="144" cy="323.7" r="1.8"/>
<circle class="st0" cx="254.2" cy="390.4" r="1.3"/>
<circle class="st0" cx="171.9" cy="403" r="1.3"/>
<circle class="st0" cx="172.4" cy="260.9" r="1"/>
<circle class="st0" cx="233" cy="331.4" r="0.9"/>
<circle class="st0" cx="307.9" cy="334.8" r="1.8"/>
<circle class="st0" cx="187.9" cy="390.2" r="2"/>
<circle class="st0" cx="366.4" cy="242.2" r="2.3"/>
<circle class="st0" cx="257.3" cy="306.6" r="1.6"/>
<circle class="st0" cx="257.1" cy="244.8" r="0.9"/>
<circle class="st0" cx="304.3" cy="314.5" r="0.8"/>
<circle class="st0" cx="342.6" cy="280" r="2.2"/>
<circle class="st0" cx="104.2" cy="293.7" r="2.1"/>
<circle class="st0" cx="76.9" cy="235.1" r="1.8"/>
<circle class="st0" cx="87.8" cy="350.9" r="2"/>
<circle class="st0" cx="129.6" cy="318.5" r="0.8"/>
<circle class="st0" cx="67.2" cy="459.9" r="1"/>
<circle class="st0" cx="49.3" cy="277.4" r="0.8"/>
<circle class="st0" cx="67.3" cy="277.8" r="2.3"/>
<circle class="st0" cx="48.1" cy="203" r="1.2"/>
<circle class="st0" cx="113.7" cy="445.3" r="1.1"/>
<circle class="st0" cx="117.8" cy="437" r="1.2"/>
<circle class="st0" cx="171.2" cy="331.1" r="1.3"/>
<circle class="st0" cx="49.2" cy="405.5" r="2.5"/>
<circle class="st0" cx="207.9" cy="930.2" r="1"/>
<circle class="st0" cx="312.3" cy="866.4" r="0.7"/>
<circle class="st0" cx="209.3" cy="921.5" r="2.5"/>
<circle class="st0" cx="238.1" cy="830.6" r="2.1"/>
<circle class="st0" cx="223.8" cy="979" r="1.5"/>
<circle class="st0" cx="199.3" cy="1029.8" r="1.7"/>
<circle class="st0" cx="254.9" cy="1107.4" r="2.1"/>
<circle class="st0" cx="354.6" cy="1010.3" r="0.8"/>
<circle class="st0" cx="390.6" cy="953.8" r="2.3"/>
<circle class="st0" cx="300.1" cy="997.9" r="2.5"/>
<circle class="st0" cx="382.1" cy="1001.9" r="1.5"/>
<circle class="st0" cx="350.2" cy="1017.3" r="1.2"/>
<circle class="st0" cx="329.6" cy="844.7" r="0.7"/>
<circle class="st0" cx="318.2" cy="855.6" r="1.7"/>
<circle class="st0" cx="340.1" cy="918.4" r="2.2"/>
<circle class="st0" cx="390.6" cy="762.4" r="1"/>
<circle class="st0" cx="167" cy="877.2" r="2.5"/>
<circle class="st0" cx="162.8" cy="909.8" r="0.9"/>
<circle class="st0" cx="117.6" cy="888.7" r="2.5"/>
<circle class="st0" cx="131.7" cy="887.4" r="1.2"/>
<circle class="st0" cx="50.7" cy="1040.9" r="0.9"/>
<circle class="st0" cx="110.3" cy="1072.6" r="1.6"/>
<circle class="st0" cx="71" cy="962.2" r="2.5"/>
<circle class="st0" cx="36.2" cy="934.6" r="1.2"/>
<circle class="st0" cx="5" cy="865" r="0.8"/>
<circle class="st0" cx="118.5" cy="821.3" r="2.2"/>
<circle class="st0" cx="56.8" cy="955.9" r="2.3"/>
<circle class="st0" cx="255.3" cy="1013.8" r="1.2"/>
<circle class="st0" cx="70.9" cy="986.5" r="1.8"/>
<circle class="st0" cx="203" cy="937.7" r="2.3"/>
<circle class="st0" cx="95.2" cy="1024.3" r="1.4"/>
<circle class="st0" cx="178.2" cy="666.5" r="1.3"/>
<circle class="st0" cx="269.9" cy="661.6" r="1.4"/>
<circle class="st0" cx="139.3" cy="699.5" r="1.7"/>
<circle class="st0" cx="288.4" cy="695.6" r="0.8"/>
<circle class="st0" cx="237.3" cy="832.2" r="2.3"/>
<circle class="st0" cx="150.4" cy="765.3" r="0.7"/>
<circle class="st0" cx="188.7" cy="799.9" r="1"/>
<circle class="st0" cx="291.5" cy="786.1" r="2.4"/>
<circle class="st0" cx="345.3" cy="815.3" r="2"/>
<circle class="st0" cx="302.3" cy="752.8" r="2"/>
<circle class="st0" cx="267.9" cy="888" r="2.4"/>
<circle class="st0" cx="399.5" cy="755.6" r="1.3"/>
<circle class="st0" cx="296.5" cy="665.9" r="2.3"/>
<circle class="st0" cx="270.2" cy="638" r="1.6"/>
<circle class="st0" cx="335.5" cy="717.9" r="0.9"/>
<circle class="st0" cx="360.2" cy="691.8" r="2.5"/>
<circle class="st0" cx="174.8" cy="619.9" r="1.9"/>
<circle class="st0" cx="113" cy="739.2" r="1.9"/>
<circle class="st0" cx="89.3" cy="704.9" r="2.2"/>
<circle class="st0" cx="122.1" cy="638.9" r="2.2"/>
<circle class="st0" cx="75.4" cy="834" r="1.1"/>
<circle class="st0" cx="58" cy="840.7" r="2.4"/>
<circle class="st0" cx="72" cy="713.3" r="2"/>
<circle class="st0" cx="9.8" cy="807.3" r="2"/>
<circle class="st0" cx="-15.7" cy="736.9" r="2.3"/>
<circle class="st0" cx="5" cy="671.9" r="1.1"/>
<circle class="st0" cx="-4.1" cy="716.2" r="0.9"/>
<circle class="st0" cx="205.8" cy="772.9" r="1.7"/>
<circle class="st0" cx="176.2" cy="736.6" r="1"/>
<circle class="st0" cx="224.1" cy="779.1" r="2.1"/>
<circle class="st0" cx="184.2" cy="742.4" r="2.4"/>
<circle class="st0" cx="596" cy="79.8" r="2.4"/>
<circle class="st0" cx="577.7" cy="62.6" r="2.4"/>
<circle class="st0" cx="551.4" cy="179.2" r="1.4"/>
<circle class="st0" cx="548" cy="39.6" r="0.7"/>
<circle class="st0" cx="599.5" cy="78.6" r="0.9"/>
<circle class="st0" cx="678.2" cy="-10" r="2.4"/>
<circle class="st0" cx="622.5" cy="206.5" r="0.9"/>
<circle class="st0" cx="726.6" cy="63.6" r="2.3"/>
<circle class="st0" cx="371.8" cy="132.4" r="2.5"/>
<circle class="st0" cx="328.1" cy="120.5" r="2"/>
<circle class="st0" cx="424.5" cy="92.6" r="1.7"/>
<circle class="st0" cx="329.4" cy="205.4" r="2"/>
<circle class="st0" cx="313" cy="81.3" r="2.2"/>
<circle class="st0" cx="293" cy="46.6" r="2.3"/>
<circle class="st0" cx="294" cy="26.2" r="2.4"/>
<circle class="st0" cx="289.6" cy="53.4" r="0.7"/>
<circle class="st0" cx="240.5" cy="109.8" r="0.7"/>
<circle class="st0" cx="239.1" cy="213.2" r="1.2"/>
<circle class="st0" cx="269.6" cy="103.5" r="2.2"/>
<circle class="st0" cx="298.1" cy="133.4" r="2"/>
<circle class="st0" cx="472" cy="161.1" r="1.5"/>
<circle class="st0" cx="437.5" cy="137.9" r="2"/>
<circle class="st0" cx="504.5" cy="40" r="1.5"/>
<circle class="st0" cx="377.8" cy="61.5" r="2.2"/>
<circle class="st0" cx="18" cy="-6.2" r="2.1"/>
<circle class="st0" cx="46" cy="89.5" r="2.3"/>
<circle class="st0" cx="60.7" cy="45.5" r="2.6"/>
<circle class="st0" cx="13.9" cy="94.9" r="1.7"/>
<circle class="st0" cx="69.2" cy="80.4" r="2.1"/>
<circle class="st0" cx="10.7" cy="237.9" r="0.8"/>
<circle class="st0" cx="43.9" cy="152.7" r="2.5"/>
<circle class="st0" cx="199.4" cy="166.2" r="2.5"/>
<circle class="st0" cx="216.9" cy="155.5" r="1.9"/>
<circle class="st0" cx="122.6" cy="245.5" r="1.9"/>
<circle class="st0" cx="219.4" cy="129.6" r="1.7"/>
<circle class="st0" cx="183.7" cy="46.3" r="0.7"/>
<circle class="st0" cx="138.7" cy="130.3" r="2.2"/>
<circle class="st0" cx="-31.2" cy="87.9" r="2.5"/>
<circle class="st0" cx="916.5" cy="506.3" r="0.9"/>
<circle class="st0" cx="1033.4" cy="713.9" r="1.1"/>
<circle class="st0" cx="816.2" cy="629.3" r="2.1"/>
<circle class="st0" cx="870.4" cy="682.9" r="1"/>
<circle class="st0" cx="898.3" cy="565.5" r="1.7"/>
<circle class="st0" cx="1044.7" cy="711.5" r="2.4"/>
<circle class="st0" cx="945.3" cy="681.9" r="1.9"/>
<circle class="st0" cx="1005.2" cy="586" r="1.5"/>
<circle class="st0" cx="942.1" cy="772.2" r="1.5"/>
<circle class="st0" cx="920.5" cy="855.3" r="1.9"/>
<circle class="st0" cx="967.6" cy="769" r="2"/>
<circle class="st0" cx="916.2" cy="685.3" r="1"/>
<circle class="st0" cx="922.8" cy="658.8" r="2.1"/>
<circle class="st0" cx="925.2" cy="667.1" r="1.5"/>
<circle class="st0" cx="1064.7" cy="712" r="2"/>
<circle class="st0" cx="1001.7" cy="793.1" r="1.9"/>
<circle class="st0" cx="1052.5" cy="674.8" r="2.5"/>
<circle class="st0" cx="1025.6" cy="749" r="1.3"/>
<circle class="st0" cx="1065.8" cy="425.6" r="2.5"/>
<circle class="st0" cx="872.7" cy="318.5" r="1.2"/>
<circle class="st0" cx="1074.8" cy="459.9" r="1.8"/>
<circle class="st0" cx="1021.4" cy="524.6" r="2"/>
<circle class="st0" cx="876.1" cy="393.4" r="1"/>
<circle class="st0" cx="1039.4" cy="506.5" r="0.7"/>
<circle class="st0" cx="991.5" cy="488.1" r="1.6"/>
<circle class="st0" cx="1031.7" cy="422.3" r="1.7"/>
<circle class="st0" cx="928.9" cy="475.9" r="1.6"/>
<circle class="st0" cx="1061" cy="448" r="1.8"/>
<circle class="st0" cx="938.2" cy="511.3" r="0.9"/>
<circle class="st0" cx="881.7" cy="405.3" r="0.8"/>
<circle class="st0" cx="994.2" cy="511.1" r="0.7"/>
<circle class="st0" cx="981.1" cy="615.9" r="0.8"/>
<circle class="st0" cx="923.3" cy="446.4" r="1.2"/>
<circle class="st0" cx="910.4" cy="630.3" r="2.1"/>
<circle class="st0" cx="1001.1" cy="980" r="0.7"/>
<circle class="st0" cx="1024.9" cy="1030.3" r="1"/>
<circle class="st0" cx="1014" cy="1030" r="0.8"/>
<circle class="st0" cx="1021.6" cy="252.7" r="0.8"/>
<circle class="st0" cx="993.1" cy="210.9" r="1.9"/>
<circle class="st0" cx="1036.9" cy="195.3" r="1.7"/>
<circle class="st0" cx="1026.8" cy="208.5" r="1.6"/>
<circle class="st0" cx="1007.6" cy="422.7" r="1.8"/>
<circle class="st0" cx="1064.6" cy="281.6" r="2.4"/>
<circle class="st0" cx="991.2" cy="298.6" r="1.2"/>
<circle class="st0" cx="960.2" cy="228.8" r="2.2"/>
<circle class="st0" cx="1095.9" cy="94.5" r="1.6"/>
<circle class="st0" cx="1048.1" cy="31.2" r="1.2"/>
<circle class="st0" cx="973.3" cy="21.4" r="1"/>
<circle class="st0" cx="896.9" cy="17.6" r="2.3"/>
<circle class="st0" cx="912.4" cy="98.5" r="2.2"/>
<circle class="st0" cx="874.4" cy="9.9" r="0.8"/>
<circle class="st0" cx="1042.6" cy="172.5" r="1.2"/>
<circle class="st0" cx="1028.6" cy="195.6" r="1.4"/>
<circle class="st0" cx="942.5" cy="71.1" r="0.7"/>
<circle class="st0" cx="1015.3" cy="123.6" r="2"/>
<circle class="st0" cx="931.2" cy="409" r="0.8"/>
<circle class="st0" cx="940.8" cy="398.7" r="1.9"/>
<circle class="st0" cx="986.1" cy="358.5" r="1.2"/>
<circle class="st0" cx="1033.4" cy="318" r="1.1"/>
<circle class="st0" cx="886" cy="251.8" r="2.3"/>
<circle class="st0" cx="836.7" cy="312.7" r="1.6"/>
<circle class="st0" cx="943.2" cy="407.9" r="2.1"/>
<circle class="st0" cx="878.7" cy="261.4" r="1.5"/>
<circle class="st0" cx="857.2" cy="145.2" r="1.3"/>
<circle class="st0" cx="906.4" cy="178.3" r="2.4"/>
<circle class="st0" cx="921.8" cy="234.9" r="0.8"/>
<circle class="st0" cx="918.8" cy="183.7" r="1.9"/>
<circle class="st0" cx="847.5" cy="20.6" r="2"/>
<circle class="st0" cx="880.4" cy="58.6" r="1.5"/>
<circle class="st0" cx="707.1" cy="583.4" r="2.1"/>
<circle class="st0" cx="725.7" cy="515.3" r="1.9"/>
<circle class="st0" cx="603.6" cy="521.1" r="1.1"/>
<circle class="st0" cx="640.2" cy="570.1" r="1.4"/>
<circle class="st0" cx="567.9" cy="460.5" r="1.5"/>
<circle class="st0" cx="756.9" cy="337.3" r="1.3"/>
<circle class="st0" cx="646.1" cy="449.3" r="1.9"/>
<circle class="st0" cx="711.3" cy="337.5" r="1.2"/>
<circle class="st0" cx="619.9" cy="152.6" r="1.4"/>
<circle class="st0" cx="596.8" cy="671.8" r="0.7"/>
<circle class="st0" cx="737.4" cy="614.7" r="1.3"/>
<circle class="st0" cx="753.6" cy="608.1" r="1.3"/>
<circle class="st0" cx="758.3" cy="479.3" r="2.2"/>
<circle class="st0" cx="768.2" cy="682.4" r="2.3"/>
<circle class="st0" cx="912.1" cy="620.2" r="2.3"/>
<circle class="st0" cx="935.7" cy="400.6" r="1.9"/>
<circle class="st0" cx="762" cy="300.3" r="0.9"/>
<circle class="st0" cx="916.1" cy="511.9" r="0.9"/>
<circle class="st0" cx="831.9" cy="477.9" r="1.1"/>
<circle class="st0" cx="727.9" cy="336.8" r="2.1"/>
<circle class="st0" cx="914.9" cy="612.8" r="1.9"/>
<circle class="st0" cx="786" cy="383.1" r="1.8"/>
<circle class="st0" cx="811.2" cy="427.6" r="1.5"/>
<circle class="st0" cx="845.9" cy="483.5" r="2.3"/>
<circle class="st0" cx="871.4" cy="380.5" r="1.7"/>
<circle class="st0" cx="736.5" cy="535.7" r="2.6"/>
<circle class="st0" cx="789.7" cy="443.9" r="2"/>
<circle class="st0" cx="895.3" cy="560.9" r="1.2"/>
<circle class="st0" cx="878.2" cy="631.8" r="1.9"/>
<circle class="st0" cx="892.2" cy="565.5" r="1.4"/>
<circle class="st0" cx="748" cy="642.1" r="2.2"/>
<circle class="st0" cx="863.5" cy="276.5" r="2.4"/>
<circle class="st0" cx="820.3" cy="263.4" r="1.6"/>
<circle class="st0" cx="880.4" cy="221.6" r="1.4"/>
<circle class="st0" cx="903.8" cy="239" r="1.9"/>
<circle class="st0" cx="1015.2" cy="333.2" r="1.2"/>
<circle class="st0" cx="895.3" cy="335.2" r="2.1"/>
<circle class="st0" cx="972.5" cy="388.6" r="2.2"/>
<circle class="st0" cx="904.1" cy="343.2" r="1.5"/>
<circle class="st0" cx="995.2" cy="136.9" r="1.4"/>
<circle class="st0" cx="898.2" cy="184.9" r="2.1"/>
<circle class="st0" cx="880" cy="33.4" r="2.1"/>
<circle class="st0" cx="910.9" cy="40.6" r="1"/>
<circle class="st0" cx="915.9" cy="103.4" r="2"/>
<circle class="st0" cx="862.3" cy="49.1" r="2.3"/>
<circle class="st0" cx="778.8" cy="106.8" r="1"/>
<circle class="st0" cx="773.6" cy="110.1" r="0.7"/>
<circle class="st0" cx="898.6" cy="125.9" r="1.9"/>
<circle class="st0" cx="859" cy="172.5" r="1.8"/>
<circle class="st0" cx="914.4" cy="106.8" r="1"/>
<circle class="st0" cx="837.1" cy="170.5" r="1.8"/>
<circle class="st0" cx="756.1" cy="427.2" r="0.8"/>
<circle class="st0" cx="805.2" cy="349.2" r="1"/>
<circle class="st0" cx="819.8" cy="475.3" r="1.4"/>
<circle class="st0" cx="852.7" cy="344.2" r="1.4"/>
<circle class="st0" cx="789.7" cy="236.5" r="1.7"/>
<circle class="st0" cx="799.3" cy="318.9" r="0.9"/>
<circle class="st0" cx="723.4" cy="375.8" r="1.4"/>
<circle class="st0" cx="797.3" cy="290.1" r="1.1"/>
<circle class="st0" cx="662.7" cy="220.1" r="2.1"/>
<circle class="st0" cx="690.2" cy="94.7" r="0.8"/>
<circle class="st0" cx="675.6" cy="219.7" r="2.5"/>
<circle class="st0" cx="846.5" cy="139.5" r="1.7"/>
<circle class="st0" cx="775.2" cy="94.3" r="2.1"/>
<circle class="st0" cx="738.2" cy="117" r="2.1"/>
<circle class="st0" cx="1046.2" cy="861.2" r="2.1"/>
<circle class="st0" cx="1105.3" cy="884.6" r="2"/>
<circle class="st0" cx="944.5" cy="818.7" r="1.8"/>
<circle class="st0" cx="987.9" cy="828.6" r="2.5"/>
<circle class="st0" cx="922.4" cy="1007.6" r="1"/>
<circle class="st0" cx="906.7" cy="958.8" r="1.8"/>
<circle class="st0" cx="932.2" cy="1001.9" r="1.6"/>
<circle class="st0" cx="971.3" cy="844.2" r="0.9"/>
<circle class="st0" cx="955" cy="922.9" r="1.2"/>
<circle class="st0" cx="914.5" cy="787.4" r="2"/>
<circle class="st0" cx="1060.3" cy="961.8" r="1.2"/>
<circle class="st0" cx="941.5" cy="1008" r="1.7"/>
<circle class="st0" cx="1084.6" cy="937.3" r="2.2"/>
<circle class="st0" cx="989.6" cy="1049.5" r="2.3"/>
<circle class="st0" cx="842.6" cy="1035.2" r="2"/>
<circle class="st0" cx="770.8" cy="1080.3" r="2.3"/>
<circle class="st0" cx="774.6" cy="1011.9" r="2.1"/>
<circle class="st0" cx="763.2" cy="969.3" r="0.9"/>
<circle class="st0" cx="869.3" cy="1019.8" r="2.5"/>
<circle class="st0" cx="859.3" cy="1064.3" r="1.6"/>
<circle class="st0" cx="883.6" cy="1000.2" r="1.6"/>
<circle class="st0" cx="749.8" cy="1007.1" r="2.1"/>
<circle class="st0" cx="649.9" cy="1023.1" r="2.4"/>
<circle class="st0" cx="693.9" cy="997.8" r="2.4"/>
<circle class="st0" cx="606" cy="1043.5" r="1.5"/>
<circle class="st0" cx="655.6" cy="1065.8" r="0.7"/>
<circle class="st0" cx="514.1" cy="1042.4" r="1.7"/>
<circle class="st0" cx="320.3" cy="993.3" r="2.4"/>
<circle class="st0" cx="417.6" cy="1033.7" r="1.2"/>
<circle class="st0" cx="377.3" cy="1077" r="2.5"/>
</svg>
