<?xml version="1.0" encoding="utf-8"?>
<!-- Generator: Adobe Illustrator 22.1.0, SVG Export Plug-In . SVG Version: 6.00 Build 0)  -->
<svg version="1.1" id="Layer_1" xmlns="http://www.w3.org/2000/svg" xmlns:xlink="http://www.w3.org/1999/xlink" x="0px" y="0px"
	 viewBox="0 0 1080 1080" style="enable-background:new 0 0 1080 1080;" xml:space="preserve">
<style type="text/css">
	.st0{fill:#FFFFFF;}
</style>
<g>
	<path class="st0" d="M222.3,353h90.6v133.5c-17.9,12.1-40,22.2-66.3,30.1c-26.3,7.9-50.8,11.8-73.6,11.8
		c-33.1,0-62.8-7.2-89.1-21.6c-26.3-14.4-46.8-34.3-61.7-59.7C7.4,421.7,0,393.1,0,361.2c0-31.6,7.7-60,23.2-85.4
		c15.5-25.4,36.9-45.2,64.2-59.4c27.3-14.3,58.1-21.4,92.5-21.4c24.9,0,49.9,4.6,74.9,13.7c25.1,9.1,46.1,21.3,63.1,36.4l-59.7,72.4
		c-10.6-10.6-23.2-19.1-37.6-25.3c-14.4-6.2-28.2-9.3-41.2-9.3c-13.4,0-25.5,3.4-36.4,10.2c-10.9,6.8-19.4,16.2-25.5,28
		c-6.1,11.8-9.1,25.2-9.1,40.1c0,15.2,3.1,28.8,9.3,40.8c6.2,12,14.8,21.4,25.7,28.2c10.9,6.8,23.2,10.2,36.9,10.2
		c11.5,0,25.5-3.6,41.9-10.9V353z"/>
	<path class="st0" d="M586.2,221.4c26.1,13.1,46.3,31.7,60.6,55.8c14.3,24.1,21.4,52.2,21.4,84c0,32.2-7.3,60.3-21.9,84.3
		c-14.6,24-35.3,42.6-62.2,55.8c-26.9,13.2-58.1,19.8-93.6,19.8H352.1V201.8h142.6C529.6,201.8,560.1,208.3,586.2,221.4z
		 M543.2,418.1c11.4-14,17.1-32.6,17.1-56c0-23.7-6.1-42.7-18.4-56.9c-12.3-14.3-28.8-21.4-49.4-21.4h-34.6v155.3h39.6
		C516.5,439.1,531.8,432.1,543.2,418.1z"/>
	<path class="st0" d="M697.8,201.8h112.1l79.3,166.7l78.8-166.7H1080v319.3h-92.5V346.2l-64.2,143.9h-68.8l-64.2-143.9v174.9h-92.5
		V201.8z"/>
</g>
<g>
	<path class="st0" d="M155.6,843.5v19.3H1.6v-17.7l85.7-89.4c9.9-10.3,17.8-20.4,23.6-30.3c5.8-9.8,8.7-18.4,8.7-25.6
		c0-11.4-4.2-20.3-12.7-26.7c-8.5-6.4-20.3-9.6-35.4-9.6c-10.4,0-21,2.3-32,7c-11,4.7-20.9,11.1-29.8,19.4L0,674
		c10.6-9.3,22.3-16.6,35.2-21.7c12.9-5.2,25.8-7.8,38.7-7.8c20.7,0,37.2,4.8,49.5,14.3c12.3,9.5,18.5,22.3,18.5,38.2
		c0,9.7-3.6,20.6-10.7,32.8c-7.1,12.1-16.9,24.7-29.3,37.7l-73.3,76.1H155.6z"/>
	<path class="st0" d="M347.8,672.9c15.3,18.9,23,46,23,81.2c0,35.2-7.7,62.3-23,81.4c-15.3,19-37.4,28.6-66.1,28.6
		c-28.6,0-50.6-9.5-66-28.6c-15.4-19-23.1-46.2-23.1-81.4c0-35.2,7.7-62.3,23.1-81.2c15.4-18.9,37.4-28.4,66-28.4
		C310.4,644.5,332.5,653.9,347.8,672.9z M231.6,685c-11.4,15.6-17.1,38.7-17.1,69.1c0,30.4,5.7,53.5,17.1,69.1
		c11.4,15.6,28,23.4,50,23.4c21.9,0,38.7-7.8,50.2-23.4c11.5-15.6,17.2-38.7,17.2-69.1c0-30.4-5.7-53.5-17.2-69.1
		c-11.5-15.6-28.2-23.4-50.2-23.4C259.7,661.5,243,669.4,231.6,685z"/>
	<path class="st0" d="M390.3,645.4h73.9v217.4h-21.4V664.6h-52.5V645.4z"/>
	<path class="st0" d="M507.7,645.4H667v17.7l-98.7,199.7h-23l98.4-198.1H527.6l-0.3,32.6h-19.6V645.4z"/>
	<path class="st0" d="M695.9,761.2h72v15.2h-72V761.2z"/>
	<path class="st0" d="M790.3,645.4h73.9v217.4h-21.4V664.6h-52.5V645.4z"/>
	<path class="st0" d="M1051.1,658.7c12.2,9.5,18.3,22.8,18.3,39.7c0,11.4-3.1,21.1-9.3,29.2c-6.2,8.1-15.1,14.3-26.7,18.6
		c14.7,4.3,26.1,11.3,34.3,20.8c8.2,9.5,12.3,21.1,12.3,34.8c0,19.3-7.1,34.4-21.3,45.5c-14.2,11.1-33.5,16.6-57.9,16.6
		c-24.6,0-44-5.5-58.2-16.5c-14.2-11-21.3-26-21.3-45c0-13.9,4.2-25.6,12.6-35.2c8.4-9.6,20-16.6,34.9-21
		c-11.8-4.3-21-10.7-27.5-18.9c-6.5-8.3-9.8-18.1-9.8-29.5c0-16.6,6.2-29.6,18.6-39.1c12.4-9.5,29.2-14.3,50.3-14.3
		C1022,644.5,1038.9,649.2,1051.1,658.7z M957.2,767.9c-10.5,7.8-15.7,18.5-15.7,32.1c0,14.7,5.2,26.1,15.7,34.3
		c10.5,8.2,25,12.3,43.6,12.3c18.4,0,32.9-4.1,43.3-12.3c10.5-8.2,15.7-19.5,15.7-34c0-13.7-5.3-24.4-15.8-32.3
		c-10.6-7.9-25.1-11.8-43.5-11.8C982.1,756.2,967.6,760.1,957.2,767.9z M963.6,671c-8.9,6.9-13.4,16.5-13.4,28.7
		c0,12.2,4.5,21.8,13.5,28.9c9,7,21.4,10.6,37.1,10.6c15.7,0,28-3.5,36.8-10.6c8.8-7,13.2-16.7,13.2-28.9c0-12.2-4.4-21.8-13.2-28.7
		c-8.8-6.9-21.1-10.4-36.8-10.4C984.9,660.6,972.5,664.1,963.6,671z"/>
</g>
</svg>
