<?xml version="1.0" encoding="utf-8"?>
<!-- Generator: Adobe Illustrator 22.1.0, SVG Export Plug-In . SVG Version: 6.00 Build 0)  -->
<svg version="1.1" id="Layer_1" xmlns="http://www.w3.org/2000/svg" xmlns:xlink="http://www.w3.org/1999/xlink" x="0px" y="0px"
	 viewBox="0 0 1080 1080" style="enable-background:new 0 0 1080 1080;" xml:space="preserve">
<style type="text/css">
	.st0{fill:#FFFFFF;}
</style>
<g>
	<path class="st0" d="M366.9,46c6,4,13,4,24-9c5.1-6,13.1-14.3,20.3-21.5c-17.2,4.2-34.1,9.2-50.5,15C361.9,37,363.9,44,366.9,46z"
		/>
	<path class="st0" d="M566.4,500.1c-12-9-92.2-84.1-108.2-120.8c-16-36.7-8-36.7-1.3-30.7c6.7,6,42.7,38,79.3,45.3s8-22.7-10.7-30
		c-18.7-7.3-122.7-102-138.7-118s-29-34-29-76s-21.1-83-33-109c-2.4-5.2-4.3-9.8-5.8-13.9C131,131.6,0,320.5,0,540
		c0,108.9,32.2,210.2,87.7,295c16.1-41.5,62.6-128.2,172.8-138.4c145.5-13.5,274.5-9,282-49.5C549.9,606.6,578.4,509.1,566.4,500.1z
		"/>
	<path class="st0" d="M786.6,318.7c34.3-39,52.3-36,57-151.3c4.7-115.3,16,52,13.3,69.3c-2.3,14.7,35.5-43.4,54.6-88.5
		C814.7,56.3,683.9,0,540,0c-24.9,0-49.4,1.7-73.4,5C454,19.5,418,62,413.9,76c-5,17-15,88,17,135s29,38,29,38s-8-55-3-62
		s14,58,29,81s34,59,60,63c7.7,1.2-11.7-81-12.3-91.7c-0.7-10.7,18.8,56.3,35.8,82.3c16.9,26,34.2,75.3,60.6,79
		c26.3,3.7,46.3,3,63.3-2s42.3-88,49.3-127s16.7-63.3,19-54.3c2.3,9-13.7,118.3-14,124C747.2,347,752.2,357.7,786.6,318.7z"/>
	<path class="st0" d="M961.1,201.9c-23.1,27-50.9,57.4-66.2,66.7c-29.3,18-144,122.7-128,126c16,3.3,80-27.3,94.7-42.7
		c14.7-15.3-2.7,37.7-50.7,76.5c-48,38.8-63.3,86.8-30.7,127.5s60.7,135.3,62,210.7s18.7,120.7,6.7,164.7
		c-4.3,15.7-14,41.5-27.9,69.9c155.3-94.8,259-265.9,259-461.2C1080,412,1035.5,294.5,961.1,201.9z"/>
</g>
</svg>
