<?xml version="1.0" encoding="utf-8"?>
<!-- Generator: Adobe Illustrator 22.1.0, SVG Export Plug-In . SVG Version: 6.00 Build 0)  -->
<svg version="1.1" id="Layer_1" xmlns="http://www.w3.org/2000/svg" xmlns:xlink="http://www.w3.org/1999/xlink" x="0px" y="0px"
	 viewBox="0 0 85 85" style="enable-background:new 0 0 85 85;" xml:space="preserve">
<style type="text/css">
	.st0{fill:#999999;}
</style>
<path class="st0" d="M18.1,28.3v28.5l24.7,14.3l24.7-14.3V28.3L42.8,14.1L18.1,28.3z M47.1,29.9h10.4v15.8v8.7v1H45.8v-9.7l0,0l0,0
	H51V41H34.7v4.7h5.1l0,0v8.7v1H28.1v-1v-8.7V29.9h10.4l4.3,6.8L47.1,29.9z"/>
<path class="st0" d="M42.8,1.8L7.4,22.3v40.9l35.4,20.5l35.4-20.5V22.3L42.8,1.8z M71.6,59.3L42.8,76L14,59.3V26.1L42.8,9.5
	l28.8,16.6V59.3z"/>
</svg>
