<?xml version="1.0" encoding="utf-8"?>
<!-- Generator: Adobe Illustrator 22.1.0, SVG Export Plug-In . SVG Version: 6.00 Build 0)  -->
<svg version="1.1" id="Layer_1" xmlns="http://www.w3.org/2000/svg" xmlns:xlink="http://www.w3.org/1999/xlink" x="0px" y="0px"
	 viewBox="0 0 256 289" style="enable-background:new 0 0 256 289;" xml:space="preserve">
<style type="text/css">
	.st0{fill:url(#SVGID_1_);}
	.st1{fill:url(#SVGID_2_);}
	.st2{fill:url(#SVGID_3_);}
</style>
<linearGradient id="SVGID_1_" gradientUnits="userSpaceOnUse" x1="18.5133" y1="30.6371" x2="266.5133" y2="232.6371">
	<stop  offset="0" style="stop-color:#01E7CF"/>
	<stop  offset="1" style="stop-color:#458DFF"/>
</linearGradient>
<polygon class="st0" points="250.9,100.1 244.1,100.1 194.1,166 145.1,100.1 137.8,100.1 190.7,170.2 135.2,242.2 135.2,245.5 
	139.5,245.5 194.1,174.5 248.9,245.5 256,245.5 197.7,170.2 "/>
<linearGradient id="SVGID_2_" gradientUnits="userSpaceOnUse" x1="-39.848" y1="102.2887" x2="208.1519" y2="304.2887">
	<stop  offset="0" style="stop-color:#01E7CF"/>
	<stop  offset="1" style="stop-color:#458DFF"/>
</linearGradient>
<polygon class="st1" points="132.7,245.5 135.2,245.5 135.2,242.2 "/>
<linearGradient id="SVGID_3_" gradientUnits="userSpaceOnUse" x1="-17.8825" y1="75.3211" x2="230.1175" y2="277.3211">
	<stop  offset="0" style="stop-color:#01E7CF"/>
	<stop  offset="1" style="stop-color:#458DFF"/>
</linearGradient>
<polygon class="st2" points="135.2,239.8 5.7,239.8 5.7,143.1 126.4,143.1 126.4,137.4 5.7,137.4 5.7,49.2 134.1,49.2 134.1,43.5 
	0,43.5 0,245.5 132.7,245.5 135.2,242.2 "/>
</svg>
