<?xml version="1.0" encoding="utf-8"?>
<!-- Generator: Adobe Illustrator 22.1.0, SVG Export Plug-In . SVG Version: 6.00 Build 0)  -->
<svg version="1.1" id="Layer_1" xmlns="http://www.w3.org/2000/svg" xmlns:xlink="http://www.w3.org/1999/xlink" x="0px" y="0px"
	 viewBox="0 0 256 289" style="enable-background:new 0 0 256 289;" xml:space="preserve">
<style type="text/css">
	.st0{fill:url(#SVGID_1_);}
</style>
<g>
	<linearGradient id="SVGID_1_" gradientUnits="userSpaceOnUse" x1="63.9681" y1="33.545" x2="191.9055" y2="255.1391">
		<stop  offset="0" style="stop-color:#01E7CF"/>
		<stop  offset="1" style="stop-color:#458DFF"/>
	</linearGradient>
	<path class="st0" d="M210.5,104.3c-2.7-0.9-5.4-1.8-8.2-2.6c0.5-1.9,0.9-3.8,1.3-5.6c6.2-30.3,2.2-54.7-11.8-62.7
		c-13.4-7.7-35.2,0.3-57.3,19.5c-2.1,1.8-4.2,3.8-6.4,5.8c-1.4-1.4-2.8-2.7-4.2-3.9c-23.1-20.5-46.3-29.2-60.2-21.1
		C50.3,41.4,46.4,64.4,52,93.1c0.5,2.8,1.2,5.6,1.9,8.5c-3.3,0.9-6.4,1.9-9.5,3C17.3,114,0,128.8,0,144.1
		c0,15.9,18.6,31.8,46.8,41.4c2.2,0.8,4.5,1.5,6.9,2.2c-0.8,3.1-1.4,6.2-2,9.1c-5.4,28.2-1.2,50.6,12.1,58.3
		c13.7,7.9,36.8-0.2,59.3-19.9c1.8-1.6,3.6-3.2,5.3-4.9c2.3,2.2,4.6,4.3,6.9,6.3c21.8,18.7,43.2,26.3,56.5,18.6
		c13.7-7.9,18.2-32,12.4-61.3c-0.4-2.2-1-4.5-1.5-6.8c1.6-0.5,3.2-1,4.8-1.5c29.3-9.7,48.4-25.4,48.4-41.5
		C256,128.7,238.1,113.8,210.5,104.3L210.5,104.3z M204.1,175.3c-1.4,0.5-2.8,0.9-4.3,1.3c-3.2-10.3-7.6-21.2-13-32.4
		c5.1-11,9.3-21.8,12.5-32c2.6,0.8,5.2,1.6,7.6,2.4c23.7,8.2,38.1,20.2,38.1,29.5C245.1,154,229.5,166.9,204.1,175.3L204.1,175.3z
		 M193.6,196.1c2.6,12.9,2.9,24.6,1.2,33.8c-1.5,8.2-4.6,13.7-8.4,15.9c-8.1,4.7-25.3-1.4-43.9-17.4c-2.1-1.8-4.3-3.8-6.4-5.9
		c7.2-7.9,14.4-17.1,21.5-27.2c12.4-1.1,24.1-2.9,34.7-5.3C192.7,192,193.2,194.1,193.6,196.1L193.6,196.1z M87.3,245
		c-7.9,2.8-14.2,2.9-18,0.7c-8.1-4.7-11.4-22.6-6.9-46.8c0.5-2.8,1.1-5.6,1.9-8.5c10.5,2.3,22.1,4,34.5,5c7.1,10,14.5,19.1,22,27.2
		c-1.6,1.6-3.3,3.1-4.9,4.5C106,235.7,96,241.9,87.3,245L87.3,245z M50.3,175.2c-12.5-4.3-22.8-9.8-29.9-15.9
		c-6.3-5.4-9.6-10.8-9.6-15.2c0-9.3,13.9-21.2,37.1-29.3c2.8-1,5.8-1.9,8.8-2.8c3.2,10.4,7.4,21.3,12.5,32.3
		c-5.1,11.2-9.4,22.2-12.6,32.8C54.5,176.6,52.4,175.9,50.3,175.2L50.3,175.2z M62.7,91c-4.8-24.6-1.6-43.1,6.4-47.8
		c8.6-5,27.5,2.1,47.5,19.8c1.3,1.1,2.6,2.3,3.8,3.5c-7.4,8-14.8,17.1-21.8,27c-12,1.1-23.6,2.9-34.2,5.3
		C63.8,96.2,63.2,93.5,62.7,91L62.7,91z M173.2,118.2c-2.5-4.4-5.1-8.6-7.8-12.8c8.2,1,16,2.4,23.3,4.1c-2.2,7.1-5,14.5-8.2,22
		C178.2,127.1,175.7,122.7,173.2,118.2L173.2,118.2z M128.1,74.4c5,5.5,10.1,11.6,15.1,18.2c-5-0.2-10.1-0.4-15.2-0.4
		c-5.1,0-10.1,0.1-15.1,0.4C117.9,86,123,79.9,128.1,74.4L128.1,74.4z M82.8,118.3c-2.5,4.4-4.9,8.8-7.2,13.2
		c-3.2-7.6-5.9-15-8.1-22.2c7.3-1.6,15.1-3,23.2-4C88,109.6,85.3,113.9,82.8,118.3L82.8,118.3L82.8,118.3z M90.9,183.6
		c-8.4-0.9-16.3-2.2-23.6-3.8c2.3-7.3,5-14.9,8.3-22.6c2.3,4.4,4.7,8.8,7.3,13.2l0,0C85.4,175,88.1,179.4,90.9,183.6L90.9,183.6z
		 M128.4,214.7c-5.2-5.6-10.4-11.8-15.4-18.4c4.9,0.2,9.9,0.3,15,0.3c5.2,0,10.4-0.1,15.5-0.3C138.5,203,133.4,209.2,128.4,214.7
		L128.4,214.7z M180.6,156.9c3.4,7.8,6.3,15.3,8.6,22.5c-7.4,1.7-15.4,3.1-23.9,4.1c2.7-4.2,5.3-8.6,7.9-13
		C175.8,165.9,178.3,161.4,180.6,156.9L180.6,156.9z M163.7,165c-4,6.9-8.1,13.6-12.3,19.8c-7.6,0.5-15.4,0.8-23.4,0.8
		s-15.7-0.2-23.2-0.7c-4.3-6.3-8.5-13-12.5-19.8l0,0c-4-6.8-7.6-13.8-10.9-20.6c3.3-6.9,6.9-13.8,10.9-20.6l0,0
		c4-6.9,8.1-13.5,12.4-19.8c7.6-0.6,15.4-0.9,23.3-0.9l0,0c7.9,0,15.7,0.3,23.4,0.9c4.2,6.2,8.4,12.8,12.3,19.7
		c4,6.9,7.7,13.8,11,20.5C171.4,151.1,167.7,158,163.7,165L163.7,165z M186.3,42.8c8.6,4.9,11.9,24.9,6.5,51
		c-0.3,1.7-0.7,3.4-1.2,5.1c-10.6-2.5-22.2-4.3-34.2-5.4c-7-10-14.3-19.1-21.6-27c2-1.9,3.9-3.7,5.9-5.4
		C160.6,44.7,178.2,38.2,186.3,42.8L186.3,42.8z M128,121.3c12.6,0,22.9,10.2,22.9,22.9c0,12.6-10.2,22.9-22.9,22.9
		s-22.9-10.2-22.9-22.9C105.1,131.5,115.4,121.3,128,121.3L128,121.3z"/>
</g>
</svg>
