<?xml version="1.0" encoding="utf-8"?>
<!-- Generator: Adobe Illustrator 22.1.0, SVG Export Plug-In . SVG Version: 6.00 Build 0)  -->
<svg version="1.1" id="Layer_1" xmlns="http://www.w3.org/2000/svg" xmlns:xlink="http://www.w3.org/1999/xlink" x="0px" y="0px"
	 viewBox="0 0 960 480" style="enable-background:new 0 0 960 480;" xml:space="preserve">
<style type="text/css">
	.st0{fill:#5DC4BC;}
	.st1{fill:url(#SVGID_1_);}
	.st2{fill:url(#SVGID_2_);}
	.st3{fill:url(#SVGID_3_);}
</style>
<ellipse transform="matrix(0.4273 -0.9041 0.9041 0.4273 178.1928 698.0891)" class="st0" cx="640.1" cy="208.4" rx="13.5" ry="45.5"/>
<linearGradient id="SVGID_1_" gradientUnits="userSpaceOnUse" x1="498.109" y1="369.1031" x2="498.109" y2="222.1593" gradientTransform="matrix(0.4273 -0.9041 2.7598 1.3043 -591.358 177.2967)">
	<stop  offset="0" style="stop-color:#5DC4BC"/>
	<stop  offset="1" style="stop-color:#5DC4BC;stop-opacity:0"/>
</linearGradient>
<polygon class="st1" points="645.9,196.2 634.4,220.6 228.8,28.9 240.3,4.6 "/>
<ellipse transform="matrix(0.4273 -0.9041 0.9041 0.4273 109.1518 1061.8904)" class="st0" cx="892.8" cy="444.8" rx="13.5" ry="72.5"/>
<linearGradient id="SVGID_2_" gradientUnits="userSpaceOnUse" x1="392.336" y1="326.1593" x2="392.336" y2="179.2156" gradientTransform="matrix(0.4273 -0.9041 4.3968 2.078 -708.9191 121.7343)">
	<stop  offset="0" style="stop-color:#5DC4BC"/>
	<stop  offset="1" style="stop-color:#5DC4BC;stop-opacity:0"/>
</linearGradient>
<polygon class="st2" points="898.5,432.6 887,457 240.9,151.6 252.4,127.3 "/>
<ellipse transform="matrix(0.4273 -0.9041 0.9041 0.4273 5.4447 729.2646)" class="st0" cx="578.4" cy="360.3" rx="13.5" ry="61"/>
<linearGradient id="SVGID_3_" gradientUnits="userSpaceOnUse" x1="334.3412" y1="280.1027" x2="334.3412" y2="133.1589" gradientTransform="matrix(0.4273 -0.9041 3.8991 1.8428 -656.6412 146.4422)">
	<stop  offset="0" style="stop-color:#5DC4BC"/>
	<stop  offset="1" style="stop-color:#5DC4BC;stop-opacity:0"/>
</linearGradient>
<polygon class="st3" points="584.1,348.2 572.6,372.5 -0.3,101.7 11.2,77.4 "/>
</svg>
